<svg height="182" viewBox="0 0 182 182" width="182" xmlns="http://www.w3.org/2000/svg"><title/><g fill="none" fill-rule="evenodd"><path d="M51 171.645C63.05 177.633 76.632 181 91 181c46.326 0 84.476-35 89.45-80H51v70.645zm-20-13.562C14.922 143.693 4.049 123.61 1.55 101H31v57.083zM51 10.355C63.05 4.367 76.632 1 91 1c46.326 0 84.476 35 89.45 80H51V10.355zM31 23.917C14.922 38.307 4.049 58.39 1.55 81H31V23.917zm0 0" fill="#CA4638"/><path d="M51 10.355a90.169 90.169 0 0 0-20 13.562v134.166a90.169 90.169 0 0 0 20 13.562V10.355zm0 0" fill="#FFF"/><path d="M180.45 101c.364-3.283.55-6.62.55-10s-.186-6.717-.55-10H1.55A90.99 90.99 0 0 0 1 91c0 3.38.186 6.717.55 10h178.9zm0 0" fill="#FFF"/></g></svg>