<svg height="182" viewBox="0 0 182 182" width="182" xmlns="http://www.w3.org/2000/svg"><title/><g transform="translate(1 1)" fill="none" fill-rule="evenodd"><circle cx="90" cy="90" fill="#346DA6" r="90"/><path d="M163.361 37.852a90.474 90.474 0 0 0-9.71-11.48l-.022-.022a90.474 90.474 0 0 0-11.481-9.711L16.638 142.148a90.474 90.474 0 0 0 9.712 11.48l.021.022a90.474 90.474 0 0 0 11.481 9.711l125.51-125.509zm0 0" fill="#FFF"/><path d="M142.148 163.361a90.474 90.474 0 0 0 11.48-9.71l.022-.022a90.474 90.474 0 0 0 9.711-11.481L37.852 16.638a90.474 90.474 0 0 0-11.48 9.712l-.022.021a90.474 90.474 0 0 0-9.711 11.481l125.509 125.51zm0 0" fill="#FFF"/><path d="M160.287 146.216a90.525 90.525 0 0 1-6.683 7.46L90.402 90.472l7.071-7.071 62.814 62.814zm0 0" fill="#CA4638"/><path d="M33.784 160.287a90.525 90.525 0 0 1-7.46-6.683l68.203-68.202 7.071 7.071-67.814 67.814zm0 0M146.216 19.713a90.525 90.525 0 0 1 7.46 6.683L95.472 84.598l-7.071-7.071 57.814-57.814zm0 0M19.713 33.784a90.525 90.525 0 0 1 6.683-7.46l57.202 57.203-7.071 7.071-56.814-56.814zm0 0" fill="#CA4638"/><path d="M178.756 105A90.609 90.609 0 0 0 180 90c0-5.11-.426-10.122-1.244-15H1.244A90.609 90.609 0 0 0 0 90c0 5.11.426 10.122 1.244 15h177.512zm0 0" fill="#FFF"/><path d="M105 178.756A90.609 90.609 0 0 1 90 180c-5.11 0-10.122-.426-15-1.244V1.244A90.609 90.609 0 0 1 90 0c5.11 0 10.122.426 15 1.244v177.512zm0 0" fill="#FFF"/><path d="M179.45 100c.364-3.283.55-6.62.55-10s-.186-6.717-.55-10H.55A90.99 90.99 0 0 0 0 90c0 3.38.186 6.717.55 10h178.9zm0 0" fill="#CA4638"/><path d="M100 179.45a90.99 90.99 0 0 1-10 .55 90.99 90.99 0 0 1-10-.55V.55A90.99 90.99 0 0 1 90 0c3.38 0 6.717.186 10 .55v178.9zm0 0" fill="#CA4638"/></g></svg>