<svg height="180" viewBox="0 0 180 180" width="180" xmlns="http://www.w3.org/2000/svg"><title/><g fill="none" fill-rule="evenodd"><circle cx="90" cy="90" fill="#FFF" r="90"/><path d="M120 174.879c34.956-12.355 60-45.692 60-84.879 0-39.187-25.044-72.524-60-84.879V174.88zm0 0" fill="#CA4738"/><path d="M120 174.879c-9.383 3.316-19.48 5.121-30 5.121s-20.617-1.805-30-5.121V5.12C69.383 1.805 79.48 0 90 0s20.617 1.805 30 5.121V174.88zm0 0" fill="#FFF"/><path d="M60 5.121C25.044 17.476 0 50.813 0 90c0 39.187 25.044 72.524 60 84.879V5.12zm0 0" fill="#346DA6"/></g></svg>