<svg height="182" viewBox="0 0 182 182" width="182" xmlns="http://www.w3.org/2000/svg"><title/><g fill="none" fill-rule="evenodd"><path d="M121 175.879c34.956-12.355 60-45.692 60-84.879 0-39.187-25.044-72.524-60-84.879V175.88zm0 0" fill="#CA4738"/><path d="M121 175.879c-9.383 3.316-19.48 5.121-30 5.121s-20.617-1.805-30-5.121V6.12C70.383 2.805 80.48 1 91 1s20.617 1.805 30 5.121V175.88zm0 0" fill="#FFF"/><path d="M61 6.121C26.044 18.476 1 51.813 1 91c0 39.187 25.044 72.524 60 84.879V6.12zm0 0" fill="#57BB63"/></g></svg>