<svg height="182" viewBox="0 0 182 182" width="182" xmlns="http://www.w3.org/2000/svg"><title/><g fill="none" fill-rule="evenodd"><path d="M61 175.879C70.383 179.195 80.48 181 91 181c44.595 0 81.614-32.434 88.756-75H61v69.879zm-30-17.796C16.118 144.763 5.694 126.564 2.244 106H31v52.083zM61 6.121C70.383 2.805 80.48 1 91 1c44.595 0 81.614 32.434 88.756 75H61V6.121zM31 23.917C16.118 37.237 5.694 55.436 2.244 76H31V23.917zm0 0" fill="#CA4638"/><path d="M61 6.121a89.944 89.944 0 0 0-30 17.796v134.166a89.944 89.944 0 0 0 30 17.796V6.12zm0 0" fill="#FFF"/><path d="M179.756 106A90.609 90.609 0 0 0 181 91c0-5.11-.426-10.122-1.244-15H2.244A90.609 90.609 0 0 0 1 91c0 5.11.426 10.122 1.244 15h177.512zm0 0" fill="#FFF"/><path d="M56 8.06a89.923 89.923 0 0 0-20 11.695v142.49a89.923 89.923 0 0 0 20 11.696V8.059zm0 0" fill="#4086CD"/><path d="M180.45 101c.364-3.283.55-6.62.55-10s-.186-6.717-.55-10H1.55A90.99 90.99 0 0 0 1 91c0 3.38.186 6.717.55 10h178.9zm0 0" fill="#4086CD"/></g></svg>