<svg height="182" viewBox="0 0 182 182" width="182" xmlns="http://www.w3.org/2000/svg"><title/><g transform="translate(1 1)" fill="none" fill-rule="evenodd"><circle cx="90" cy="90" fill="#346DA6" r="90"/><path d="M127 29l1.978 6.308 6.041-2.347-3.575 5.52L137 41.861l-6.436.574.886 6.564-4.45-4.803L122.55 49l.886-6.564-6.436-.574 5.556-3.382-3.575-5.519 6.041 2.347L127 29zm0 0M153 71l1.978 6.308 6.041-2.347-3.575 5.52L163 83.861l-6.436.574.886 6.564-4.45-4.803L148.55 91l.886-6.564-6.436-.574 5.556-3.382-3.575-5.519 6.041 2.347L153 71zm0 0M106 60l1.978 6.308 6.041-2.347-3.575 5.52L116 72.861l-6.436.574.886 6.564-4.45-4.803L101.55 80l.886-6.564L96 72.862l5.556-3.382-3.575-5.519 6.041 2.347L106 60zm0 0M127 126l1.978 6.308 6.041-2.347-3.575 5.52 5.556 3.381-6.436.574.886 6.564-4.45-4.803-4.45 4.803.886-6.564-6.436-.574 5.556-3.382-3.575-5.519 6.041 2.347L127 126zm0 0M53 104l4.154 13.247 12.687-4.928-7.508 11.59L74 131.01l-13.515 1.206L62.345 146 53 135.914 43.654 146l1.861-13.784L32 131.01l11.667-7.101-7.508-11.59 12.687 4.928L53 104zm0 0M133.5 98l1.235 3.87H139l-3.367 2.367 1.234 3.763-3.367-2.366-3.367 2.258 1.234-3.655L128 101.87h4.153L133.5 98zm0 0M22.035 31A89.876 89.876 0 0 0 4.441 62H94V31H22.035zm0 0" fill="#FFF"/><path d="M13.67 42.295a89.64 89.64 0 0 0-8.231 16.822L73.205 93H94V82.602L13.67 42.295zm0 0" fill="#FFF"/><path d="M94 .087A91.542 91.542 0 0 0 90 0c-7.744 0-15.26.978-22.43 2.817L33.788 19.71A90.322 90.322 0 0 0 8.16 52.5L94 10.398V.087zm0 0" fill="#FFF"/><path d="M16 38.76C5.912 53.304 0 70.962 0 90c0 1.004.016 2.004.05 3H16V38.76zm0 0" fill="#FFF"/><path d="M17.253 37a89.846 89.846 0 0 0-10.61 19H94V37H17.253zm0 0" fill="#CA4638"/><path d="M11 46.849C3.987 59.66 0 74.365 0 90c0 1.004.016 2.004.05 3H11V46.849zm0 0M93.839.08a91.559 91.559 0 0 0-15.134.622L25.455 27.28a90.543 90.543 0 0 0-3.42 3.72h9.853L93.838.08zm0 0M94 93L32 62h13.864L94 86.068V93zm0 0" fill="#CA4638"/></g></svg>