<svg height="182" viewBox="0 0 182 182" width="182" xmlns="http://www.w3.org/2000/svg"><title/><g transform="translate(1 1)" fill="none" fill-rule="evenodd"><circle cx="90" cy="90" fill="#346DA6" r="90"/><path d="M22.035 31A89.876 89.876 0 0 0 4.441 62H94V31H22.035zm0 0" fill="#FFF"/><path d="M13.67 42.295a89.64 89.64 0 0 0-8.231 16.822L73.205 93H94V82.602L13.67 42.295zm0 0" fill="#FFF"/><path d="M94 .087A91.542 91.542 0 0 0 90 0c-7.744 0-15.26.978-22.43 2.817L33.788 19.71A90.322 90.322 0 0 0 8.16 52.5L94 10.398V.087zm0 0" fill="#FFF"/><path d="M16 38.76C5.912 53.304 0 70.962 0 90c0 1.004.016 2.004.05 3H16V38.76zm0 0" fill="#FFF"/><path d="M17.253 37a89.846 89.846 0 0 0-10.61 19H94V37H17.253zm0 0" fill="#CA4638"/><path d="M11 46.849C3.987 59.66 0 74.365 0 90c0 1.004.016 2.004.05 3H11V46.849zm0 0M93.839.08a91.559 91.559 0 0 0-15.134.622L25.455 27.28a90.543 90.543 0 0 0-3.42 3.72h9.853L93.838.08zm0 0M94 93L32 62h13.864L94 86.068V93zm0 0" fill="#CA4638"/><path d="M142 103l2.02 7.355H151l-5.51 4.495 2.02 7.15-5.51-4.495-5.51 4.29 2.02-6.945-5.51-4.495h6.796L142 103zm-21 39l2.02 7.355H130l-5.51 4.495 2.02 7.15-5.51-4.495-5.51 4.29 2.02-6.945-5.51-4.495h6.796L121 142zm0-64l2.02 7.355H130l-5.51 4.495 2.02 7.15-5.51-4.495-5.51 4.29 2.02-6.945-5.51-4.495h6.796L121 78zm-21 27l2.02 7.355H109l-5.51 4.495 2.02 7.15-5.51-4.495-5.51 4.29 2.02-6.945-5.51-4.495h6.796L100 105zm0 0" fill="#CA4638" stroke="#FFF"/></g></svg>